<svg xmlns="http://www.w3.org/2000/svg" fill-rule="evenodd" viewBox="0 0 100 100">
    <path d="M56.6 16.5v-4.4h4.1c.8 0 1.5-.7 1.5-1.5V3.4c0-.8-.7-1.5-1.5-1.5H43.2c-.8 0-1.5.7-1.5 1.5v7.2c0 .8.7 1.5 1.5 1.5h4.1v4.4c-9.7 1.1-18.3 5.6-24.8 12.2L20.8 27l2.8-2.8c.6-.6.6-1.5 0-2.1l-5.8-5.8c-.6-.6-1.5-.6-2.1 0L7.8 24c-.6.6-.6 1.5 0 2.1l5.8 5.8c.3.3.7.4 1.1.4s.8-.1 1.1-.4l2.9-2.9 1.9 1.9C14.6 38 11 47.2 11 57.2c0 22.6 18.4 41 41 41s41-18.4 41-41c-.1-21-16-38.4-36.4-40.7zM14.7 28.8 11 25l5.6-5.6 3.7 3.7-2.2 2.2-1.1 1.1-2.3 2.4zM48.8 9.1h-4.1V4.9h14.5v4.2h-4.1c-.8 0-1.5.7-1.5 1.5v5.7h-3.2v-5.7c-.1-.9-.8-1.5-1.6-1.5zm3.1 86.1c-20.9 0-38-17-38-38s17-38 38-38c.8 0 1.6 0 2.4.1.4 0 .8.1 1.2.1 19.3 1.8 34.4 18.1 34.4 37.8 0 21-17 38-38 38z"/>
    <path d="m73.5 32.6-.3-.3c-5.7-4.9-13.1-7.8-21.2-7.8-18.1 0-32.7 14.7-32.7 32.7S33.9 90 51.9 90s32.7-14.7 32.7-32.7c.1-9.9-4.3-18.7-11.1-24.7zM51.9 87c-16.4 0-29.7-13.3-29.7-29.7s13.3-29.7 29.7-29.7c6.9 0 13.2 2.4 18.2 6.3L53.9 52.5c-.6-.2-1.3-.4-1.9-.4-2.8 0-5.1 2.3-5.1 5.1s2.3 5.1 5.1 5.1 5-2.3 5-5.1c0-1-.3-2-.8-2.8l16.3-18.7c5.7 5.4 9.2 13 9.2 21.5C81.7 73.6 68.3 87 51.9 87zM54 57.2c0 1.2-.9 2.1-2.1 2.1s-2.1-.9-2.1-2.1c0-1.1.9-2.1 2.1-2.1s2.1 1 2.1 2.1z"/>
</svg>
